<?xml version="1.0" encoding="UTF-8"?>
<svg width="29px" height="34px" viewBox="0 0 29 34" version="1.1" xmlns="http://www.w3.org/2000/svg" xmlns:xlink="http://www.w3.org/1999/xlink">
    <!-- Generator: Sketch 63.1 (92452) - https://sketch.com -->
    <title>Group Copy</title>
    <desc>Created with Sketch.</desc>
    <g id="Page-1" stroke="none" stroke-width="1" fill="none" fill-rule="evenodd">
        <g id="Group-Copy" transform="translate(1.000000, 1.000000)" fill="#D40100" fill-rule="nonzero">
            <path d="M13.0991716,-0.773318524 L13.0896353,-0.76838477 L12.9413332,-0.698121889 C10.0823185,0.654257053 7.92293536,1.55573907 6.47887138,2.00290142 C5.00408029,2.45957858 2.799618,2.92256387 -0.122926747,3.38666254 C-0.537438485,3.4524868 -0.845030817,3.8061523 -0.852735877,4.2257872 C-1.01621163,13.1290449 0.361221251,19.767027 3.32505447,24.1433721 C6.26353077,28.4822756 9.54431551,31.3696073 13.1752985,32.7787452 L13.1923341,32.7851604 C13.4089146,32.8642391 13.6309466,32.851168 13.8221322,32.7707959 L13.8377555,32.763992 L13.911463,32.7350718 C17.4989598,31.3105465 20.7431398,28.4379194 23.6519806,24.1427751 C26.6158138,19.76643 27.9932467,13.128448 27.8297709,4.22519022 C27.8220659,3.80555533 27.5144736,3.45188983 27.0999618,3.38606557 L26.9254709,3.35822102 C24.0895304,2.90345001 21.943459,2.44984806 20.4981637,2.00230444 C19.024629,1.54601634 16.8062805,0.616675672 13.8597861,-0.782080933 C13.6012955,-0.904791318 13.324954,-0.887453291 13.0991716,-0.773318524 Z M13.3293713,1.03312173 L13.4891543,0.957947896 L13.5640164,0.993213776 C16.35885,2.30785953 18.4947475,3.19451063 19.9859995,3.65628501 L20.0332665,3.67085345 C21.4434103,4.10346969 23.416077,4.53018737 25.9594642,4.95468097 L26.1083447,4.9793988 L26.1088193,5.02293614 C26.1763255,13.2121385 24.8656628,19.2628882 22.2183503,23.1718642 L22.1364556,23.2922593 C19.5133545,27.1316153 16.6531344,29.6955136 13.5628535,31.0065902 L13.4878076,31.0380762 L13.4103757,31.0055681 C10.2892718,29.680267 7.40304803,27.0770824 4.75868479,23.1724612 L4.67723537,23.0508821 C2.08449481,19.1385001 0.801405559,13.1283107 0.868215781,5.02353311 L0.868649299,4.98000802 L0.940323836,4.96814071 C3.5497235,4.53464056 5.56371642,4.09885919 6.99103555,3.65688199 L7.08128436,3.62866565 C8.55281661,3.16425807 10.6311647,2.30002532 13.3293713,1.03312173 Z" id="Combined-Shape"></path>
            <polygon id="Line" points="14.3863131 -0.0961923848 14.3863131 32.0320641 12.6548502 32.0320641 12.6548502 -0.0961923848"></polygon>
            <path d="M13.4890617,11.5444857 C17.7707077,11.547194 22.0328969,11.8668438 26.2752783,12.5034158 L26.4038292,12.5228029 L27.2597839,12.6525434 L27.0003028,14.3644527 L26.1443481,14.2347122 C21.9449956,13.5981991 17.7263247,13.2786294 13.4879734,13.2759654 C9.29233449,13.2733283 5.13704564,13.5812791 1.02174308,14.1998063 L0.897049185,14.2186446 L0.041130038,14.3486191 L-0.218819031,12.6367808 L0.637100116,12.5068063 C4.87972241,11.8625482 9.16383455,11.5417843 13.4890617,11.5444857 Z" id="Line-2"></path>
        </g>
    </g>
</svg>